<?xml version="1.0" encoding="UTF-8" standalone="no"?>
<!-- Created with Inkscape (http://www.inkscape.org/) -->

<svg
   xmlns:dc="http://purl.org/dc/elements/1.1/"
   xmlns:cc="http://creativecommons.org/ns#"
   xmlns:rdf="http://www.w3.org/1999/02/22-rdf-syntax-ns#"
   xmlns:svg="http://www.w3.org/2000/svg"
   xmlns="http://www.w3.org/2000/svg"
   xmlns:sodipodi="http://sodipodi.sourceforge.net/DTD/sodipodi-0.dtd"
   xmlns:inkscape="http://www.inkscape.org/namespaces/inkscape"
   width="576"
   height="576"
   viewBox="0 0 152.4 152.4"
   version="1.1"
   id="svg8"
   inkscape:version="0.92.1 r15371"
   sodipodi:docname="thumbnail.svg"
   inkscape:export-filename="/home/branko/projects/factorio/personal-logistics-templates/thumbnail.png"
   inkscape:export-xdpi="24"
   inkscape:export-ydpi="24">
  <defs
     id="defs2" />
  <sodipodi:namedview
     id="base"
     pagecolor="#ffffff"
     bordercolor="#666666"
     borderopacity="1.0"
     inkscape:pageopacity="0.0"
     inkscape:pageshadow="2"
     inkscape:zoom="0.70710678"
     inkscape:cx="118.35393"
     inkscape:cy="505.62206"
     inkscape:document-units="mm"
     inkscape:current-layer="layer1"
     showgrid="false"
     inkscape:window-width="1920"
     inkscape:window-height="1027"
     inkscape:window-x="0"
     inkscape:window-y="0"
     inkscape:window-maximized="1"
     units="px" />
  <metadata
     id="metadata5">
    <rdf:RDF>
      <cc:Work
         rdf:about="">
        <dc:format>image/svg+xml</dc:format>
        <dc:type
           rdf:resource="http://purl.org/dc/dcmitype/StillImage" />
        <dc:title />
      </cc:Work>
    </rdf:RDF>
  </metadata>
  <g
     inkscape:label="Layer 1"
     inkscape:groupmode="layer"
     id="layer1"
     transform="translate(0,-144.59996)">
    <path
       inkscape:connector-curvature="0"
       style="fill:#000000;fill-opacity:1;stroke-width:0.29765624"
       d="m 0,144.59996 h 152.4 v 152.4 H 0 Z"
       id="path4603" />
    <g
       class=""
       id="g4607"
       transform="matrix(0.18326118,0,0,0.18326118,29.285138,173.87777)">
      <path
         style="fill:#ffffff;fill-opacity:1"
         inkscape:connector-curvature="0"
         d="m 407,24.98 v 14.04 h 16 V 25 Z M 88.99,25 V 39.03 H 105 V 25 Z M 487,57 H 344.9 V 72.96 H 487 Z M 167,57 H 25 v 15.98 h 142 z m 256,33.93 h -16.1 v 27.97 l 13.7,0.1 h 2.4 z m -318,0.1 H 88.97 V 119.1 H 105 Z m 272,45.87 -0.1,32.1 h -78.5 l -16,-32 h -52.8 l -16,32.1 L 135,169 V 137 H 55.03 L 42.99,185 199,214.4 V 208 c 0.1,-31.4 25.7,-56.9 57.1,-57 31.3,0 57,25.6 56.9,57 0,4.1 0.1,6.4 0.1,6.4 L 469,185.1 457,137 Z M 256.1,169 c -21.6,0 -39,17.4 -39.1,39.1 0.1,21.5 17.5,38.9 39.1,38.9 21.6,0 39,-17.4 38.9,-39 0.1,-21.5 -17.3,-39 -38.9,-39 z m -0.2,14 c 13.8,0 25,11.3 25.1,25 0,13.7 -11.3,25.1 -25,25 -13.7,0 -25.1,-11.3 -25,-24.9 0,-13.8 11.3,-25 24.9,-25.1 z M 201.2,223.5 215,279 h 82 l 13.9,-55.4 C 304.1,247.5 282.1,265 256.1,265 230,265 208,247.4 201.2,223.5 Z m -35.8,4.2 -105.05,93.4 83.85,107.7 c 5,-5 11.3,-8.8 18.2,-11.1 l -62.2,-99.7 87.9,-73 -3.4,-13.4 z m 181.3,0.2 -19.4,3.8 -3.3,13.4 87.8,73 -62.2,99.6 c 7,2.3 13.2,6.2 18.3,11.3 L 451.7,321.2 Z M 176,433.6 c -15,0 -26.9,11.9 -26.9,26.7 0,14.9 11.9,26.7 27,26.8 14.9,-0.1 26.9,-12 26.9,-26.8 -0.1,-14.8 -11.9,-26.7 -27,-26.7 z m 159.9,0 c -14.9,0.1 -27,11.9 -26.9,26.8 0,14.7 11.9,26.6 27,26.6 15,0 27,-11.8 26.9,-26.7 0.1,-14.8 -11.9,-26.7 -27,-26.7 z"
         id="path4605" />
    </g>
    <g
       transform="matrix(2.1166667,0,0,2.1166667,8.4666656,153.06663)"
       id="g7191"
       style="fill:#ffffff">
      <path
         style="fill:#ffffff;fill-opacity:1"
         d="M 0,0.5 V 0 H 0.5 1 1.5 2 2.5 3 3.5 4 4.5 5 5.5 6 6.5 7 7.5 8 V 0.5 Q 8,1 8,1.5 8,2 7.5,2 7,2 6.5,2 6,2 5.5,2 5,2 4.5,2 4,2 3.5,2 3,2 2.5,2 2,2 2,2.5 2,3 2,3.5 2,4 2,4.5 2,5 2,5.5 2,6 2,6.5 2,7 2,7.5 2,8 1.5,8 1,8 0.5,8 H 0 V 7.5 7 6.5 6 5.5 5 4.5 4 3.5 3 2.5 2 1.5 1 0.5"
         id="path7157"
         inkscape:connector-curvature="0" />
      <path
         style="fill:#ffffff;fill-opacity:0"
         d="M 8,0.5 V 0 H 8.5 9 9.5 10 10.5 11 11.5 12 12.5 13 13.5 14 v 0.5 q 0,0.5 0,1 0,0.5 0.5,0.5 0.5,0 1,0 0.5,0 1,0 0.5,0 1,0 0.5,0 1,0 0.5,0 1,0 Q 20,2 20,1.5 20,1 20,0.5 V 0 h 0.5 0.5 0.5 0.5 0.5 0.5 0.5 0.5 0.5 0.5 0.5 0.5 0.5 0.5 0.5 0.5 v 0.5 q 0,0.5 0,1 0,0.5 0.5,0.5 0.5,0 1,0 0.5,0 1,0 0.5,0 1,0 0.5,0 1,0 0.5,0 1,0 0.5,0 1,0 0.5,0 1,0 Q 36,2 36,1.5 36,1 36,0.5 V 0 h 0.5 0.5 0.5 0.5 0.5 0.5 0.5 0.5 0.5 0.5 0.5 0.5 0.5 0.5 0.5 0.5 v 0.5 q 0,0.5 0,1 0,0.5 0.5,0.5 0.5,0 1,0 0.5,0 1,0 0.5,0 1,0 0.5,0 1,0 0.5,0 1,0 Q 50,2 50,1.5 50,1 50,0.5 V 0 h 0.5 0.5 0.5 0.5 0.5 0.5 0.5 0.5 0.5 0.5 0.5 0.5 v 0.5 q 0,0.5 0,1 0,0.5 0.5,0.5 0.5,0 1,0 0.5,0 1,0 0.5,0 1,0 0.5,0 1,0 0.5,0 1,0 0.5,0 0.5,0.5 0,0.5 0,1 0,0.5 0,1 0,0.5 0,1 0,0.5 0,1 0,0.5 0,1 0,0.5 0.5,0.5 0.5,0 1,0 H 64 V 8.5 9 9.5 10 10.5 11 11.5 12 12.5 13 13.5 14 h -0.5 q -0.5,0 -1,0 -0.5,0 -0.5,0.5 0,0.5 0,1 0,0.5 0,1 0,0.5 0,1 0,0.5 0,1 0,0.5 0,1 0,0.5 0.5,0.5 0.5,0 1,0 H 64 v 0.5 0.5 0.5 0.5 0.5 0.5 0.5 0.5 0.5 0.5 0.5 0.5 0.5 0.5 0.5 0.5 h -0.5 q -0.5,0 -1,0 -0.5,0 -0.5,0.5 0,0.5 0,1 0,0.5 0,1 0,0.5 0,1 0,0.5 0,1 0,0.5 0,1 0,0.5 0,1 0,0.5 0,1 0,0.5 0.5,0.5 0.5,0 1,0 H 64 v 0.5 0.5 0.5 0.5 0.5 0.5 0.5 0.5 0.5 0.5 0.5 0.5 0.5 0.5 0.5 0.5 h -0.5 q -0.5,0 -1,0 -0.5,0 -0.5,0.5 0,0.5 0,1 0,0.5 0,1 0,0.5 0,1 0,0.5 0,1 0,0.5 0,1 0,0.5 0.5,0.5 0.5,0 1,0 H 64 v 0.5 0.5 0.5 0.5 0.5 0.5 0.5 0.5 0.5 0.5 0.5 0.5 h -0.5 q -0.5,0 -1,0 -0.5,0 -0.5,0.5 0,0.5 0,1 0,0.5 0,1 0,0.5 0,1 0,0.5 0,1 0,0.5 0,1 0,0.5 -0.5,0.5 -0.5,0 -1,0 -0.5,0 -1,0 -0.5,0 -1,0 -0.5,0 -1,0 -0.5,0 -1,0 -0.5,0 -0.5,0.5 0,0.5 0,1 V 64 H 55.5 55 54.5 54 53.5 53 52.5 52 51.5 51 50.5 50 v -0.5 q 0,-0.5 0,-1 0,-0.5 -0.5,-0.5 -0.5,0 -1,0 -0.5,0 -1,0 -0.5,0 -1,0 -0.5,0 -1,0 -0.5,0 -1,0 -0.5,0 -0.5,0.5 0,0.5 0,1 V 64 H 43.5 43 42.5 42 41.5 41 40.5 40 39.5 39 38.5 38 37.5 37 36.5 36 v -0.5 q 0,-0.5 0,-1 0,-0.5 -0.5,-0.5 -0.5,0 -1,0 -0.5,0 -1,0 -0.5,0 -1,0 -0.5,0 -1,0 -0.5,0 -1,0 -0.5,0 -1,0 -0.5,0 -1,0 -0.5,0 -0.5,0.5 0,0.5 0,1 V 64 H 27.5 27 26.5 26 25.5 25 24.5 24 23.5 23 22.5 22 21.5 21 20.5 20 v -0.5 q 0,-0.5 0,-1 0,-0.5 -0.5,-0.5 -0.5,0 -1,0 -0.5,0 -1,0 -0.5,0 -1,0 -0.5,0 -1,0 -0.5,0 -1,0 -0.5,0 -0.5,0.5 0,0.5 0,1 V 64 H 13.5 13 12.5 12 11.5 11 10.5 10 9.5 9 8.5 8 V 63.5 Q 8,63 8,62.5 8,62 7.5,62 7,62 6.5,62 6,62 5.5,62 5,62 4.5,62 4,62 3.5,62 3,62 2.5,62 2,62 2,61.5 2,61 2,60.5 2,60 2,59.5 2,59 2,58.5 2,58 2,57.5 2,57 2,56.5 2,56 1.5,56 1,56 0.5,56 H 0 V 55.5 55 54.5 54 53.5 53 52.5 52 51.5 51 50.5 50 H 0.5 Q 1,50 1.5,50 2,50 2,49.5 2,49 2,48.5 2,48 2,47.5 2,47 2,46.5 2,46 2,45.5 2,45 2,44.5 2,44 1.5,44 1,44 0.5,44 H 0 V 43.5 43 42.5 42 41.5 41 40.5 40 39.5 39 38.5 38 37.5 37 36.5 36 H 0.5 Q 1,36 1.5,36 2,36 2,35.5 2,35 2,34.5 2,34 2,33.5 2,33 2,32.5 2,32 2,31.5 2,31 2,30.5 2,30 2,29.5 2,29 2,28.5 2,28 1.5,28 1,28 0.5,28 H 0 V 27.5 27 26.5 26 25.5 25 24.5 24 23.5 23 22.5 22 21.5 21 20.5 20 H 0.5 Q 1,20 1.5,20 2,20 2,19.5 2,19 2,18.5 2,18 2,17.5 2,17 2,16.5 2,16 2,15.5 2,15 2,14.5 2,14 1.5,14 1,14 0.5,14 H 0 V 13.5 13 12.5 12 11.5 11 10.5 10 9.5 9 8.5 8 H 0.5 Q 1,8 1.5,8 2,8 2,7.5 2,7 2,6.5 2,6 2,5.5 2,5 2,4.5 2,4 2,3.5 2,3 2,2.5 2,2 2.5,2 3,2 3.5,2 4,2 4.5,2 5,2 5.5,2 6,2 6.5,2 7,2 7.5,2 8,2 8,1.5 8,1 8,0.5"
         id="path7159"
         inkscape:connector-curvature="0" />
      <path
         style="fill:#ffffff;fill-opacity:1"
         d="M 14,0.5 V 0 H 14.5 15 15.5 16 16.5 17 17.5 18 18.5 19 19.5 20 V 0.5 Q 20,1 20,1.5 20,2 19.5,2 19,2 18.5,2 18,2 17.5,2 17,2 16.5,2 16,2 15.5,2 15,2 14.5,2 14,2 14,1.5 14,1 14,0.5"
         id="path7161"
         inkscape:connector-curvature="0" />
      <path
         style="fill:#ffffff;fill-opacity:1"
         d="M 28,0.5 V 0 H 28.5 29 29.5 30 30.5 31 31.5 32 32.5 33 33.5 34 34.5 35 35.5 36 V 0.5 Q 36,1 36,1.5 36,2 35.5,2 35,2 34.5,2 34,2 33.5,2 33,2 32.5,2 32,2 31.5,2 31,2 30.5,2 30,2 29.5,2 29,2 28.5,2 28,2 28,1.5 28,1 28,0.5"
         id="path7163"
         inkscape:connector-curvature="0" />
      <path
         style="fill:#ffffff;fill-opacity:1"
         d="M 44,0.5 V 0 H 44.5 45 45.5 46 46.5 47 47.5 48 48.5 49 49.5 50 V 0.5 Q 50,1 50,1.5 50,2 49.5,2 49,2 48.5,2 48,2 47.5,2 47,2 46.5,2 46,2 45.5,2 45,2 44.5,2 44,2 44,1.5 44,1 44,0.5"
         id="path7165"
         inkscape:connector-curvature="0" />
      <path
         style="fill:#ffffff;fill-opacity:1"
         d="M 56,0.5 V 0 H 56.5 57 57.5 58 58.5 59 59.5 60 60.5 61 61.5 62 62.5 63 63.5 64 V 0.5 1 1.5 2 2.5 3 3.5 4 4.5 5 5.5 6 6.5 7 7.5 8 H 63.5 Q 63,8 62.5,8 62,8 62,7.5 62,7 62,6.5 62,6 62,5.5 62,5 62,4.5 62,4 62,3.5 62,3 62,2.5 62,2 61.5,2 61,2 60.5,2 60,2 59.5,2 59,2 58.5,2 58,2 57.5,2 57,2 56.5,2 56,2 56,1.5 56,1 56,0.5"
         id="path7167"
         inkscape:connector-curvature="0" />
      <path
         style="fill:#ffffff;fill-opacity:1"
         d="M 0,14.5 V 14 h 0.5 q 0.5,0 1,0 0.5,0 0.5,0.5 0,0.5 0,1 0,0.5 0,1 0,0.5 0,1 0,0.5 0,1 0,0.5 0,1 Q 2,20 1.5,20 1,20 0.5,20 H 0 V 19.5 19 18.5 18 17.5 17 16.5 16 15.5 15 14.5"
         id="path7169"
         inkscape:connector-curvature="0" />
      <path
         style="fill:#ffffff;fill-opacity:1"
         d="m 62,14.5 q 0,-0.5 0.5,-0.5 0.5,0 1,0 H 64 v 0.5 0.5 0.5 0.5 0.5 0.5 0.5 0.5 0.5 0.5 0.5 0.5 h -0.5 q -0.5,0 -1,0 -0.5,0 -0.5,-0.5 0,-0.5 0,-1 0,-0.5 0,-1 0,-0.5 0,-1 0,-0.5 0,-1 0,-0.5 0,-1"
         id="path7171"
         inkscape:connector-curvature="0" />
      <path
         style="fill:#ffffff;fill-opacity:1"
         d="M 0,28.5 V 28 h 0.5 q 0.5,0 1,0 0.5,0 0.5,0.5 0,0.5 0,1 0,0.5 0,1 0,0.5 0,1 0,0.5 0,1 0,0.5 0,1 0,0.5 0,1 0,0.5 0,1 Q 2,36 1.5,36 1,36 0.5,36 H 0 V 35.5 35 34.5 34 33.5 33 32.5 32 31.5 31 30.5 30 29.5 29 28.5"
         id="path7173"
         inkscape:connector-curvature="0" />
      <path
         style="fill:#ffffff;fill-opacity:1"
         d="m 62,28.5 q 0,-0.5 0.5,-0.5 0.5,0 1,0 H 64 v 0.5 0.5 0.5 0.5 0.5 0.5 0.5 0.5 0.5 0.5 0.5 0.5 0.5 0.5 0.5 0.5 h -0.5 q -0.5,0 -1,0 -0.5,0 -0.5,-0.5 0,-0.5 0,-1 0,-0.5 0,-1 0,-0.5 0,-1 0,-0.5 0,-1 0,-0.5 0,-1 0,-0.5 0,-1 0,-0.5 0,-1"
         id="path7175"
         inkscape:connector-curvature="0" />
      <path
         style="fill:#ffffff;fill-opacity:1"
         d="M 0,44.5 V 44 h 0.5 q 0.5,0 1,0 0.5,0 0.5,0.5 0,0.5 0,1 0,0.5 0,1 0,0.5 0,1 0,0.5 0,1 0,0.5 0,1 Q 2,50 1.5,50 1,50 0.5,50 H 0 V 49.5 49 48.5 48 47.5 47 46.5 46 45.5 45 44.5"
         id="path7177"
         inkscape:connector-curvature="0" />
      <path
         style="fill:#ffffff;fill-opacity:1"
         d="m 62,44.5 q 0,-0.5 0.5,-0.5 0.5,0 1,0 H 64 v 0.5 0.5 0.5 0.5 0.5 0.5 0.5 0.5 0.5 0.5 0.5 0.5 h -0.5 q -0.5,0 -1,0 -0.5,0 -0.5,-0.5 0,-0.5 0,-1 0,-0.5 0,-1 0,-0.5 0,-1 0,-0.5 0,-1 0,-0.5 0,-1"
         id="path7179"
         inkscape:connector-curvature="0" />
      <path
         style="fill:#ffffff;fill-opacity:1"
         d="M 0,56.5 V 56 h 0.5 q 0.5,0 1,0 0.5,0 0.5,0.5 0,0.5 0,1 0,0.5 0,1 0,0.5 0,1 0,0.5 0,1 0,0.5 0,1 0,0.5 0.5,0.5 0.5,0 1,0 0.5,0 1,0 0.5,0 1,0 0.5,0 1,0 0.5,0 1,0 0.5,0 0.5,0.5 0,0.5 0,1 V 64 H 7.5 7 6.5 6 5.5 5 4.5 4 3.5 3 2.5 2 1.5 1 0.5 0 V 63.5 63 62.5 62 61.5 61 60.5 60 59.5 59 58.5 58 57.5 57 56.5"
         id="path7181"
         inkscape:connector-curvature="0" />
      <path
         style="fill:#ffffff;fill-opacity:1"
         d="m 62,56.5 q 0,-0.5 0.5,-0.5 0.5,0 1,0 H 64 V 56.5 57 57.5 58 58.5 59 59.5 60 60.5 61 61.5 62 62.5 63 63.5 64 H 63.5 63 62.5 62 61.5 61 60.5 60 59.5 59 58.5 58 57.5 57 56.5 56 v -0.5 q 0,-0.5 0,-1 0,-0.5 0.5,-0.5 0.5,0 1,0 0.5,0 1,0 0.5,0 1,0 0.5,0 1,0 0.5,0 1,0 0.5,0 0.5,-0.5 0,-0.5 0,-1 0,-0.5 0,-1 0,-0.5 0,-1 0,-0.5 0,-1 0,-0.5 0,-1"
         id="path7183"
         inkscape:connector-curvature="0" />
      <path
         style="fill:#ffffff;fill-opacity:1"
         d="m 14,62.5 q 0,-0.5 0.5,-0.5 0.5,0 1,0 0.5,0 1,0 0.5,0 1,0 0.5,0 1,0 0.5,0 1,0 0.5,0 0.5,0.5 0,0.5 0,1 V 64 H 19.5 19 18.5 18 17.5 17 16.5 16 15.5 15 14.5 14 v -0.5 q 0,-0.5 0,-1"
         id="path7185"
         inkscape:connector-curvature="0" />
      <path
         style="fill:#ffffff;fill-opacity:1"
         d="m 28,62.5 q 0,-0.5 0.5,-0.5 0.5,0 1,0 0.5,0 1,0 0.5,0 1,0 0.5,0 1,0 0.5,0 1,0 0.5,0 1,0 0.5,0 1,0 0.5,0 0.5,0.5 0,0.5 0,1 V 64 H 35.5 35 34.5 34 33.5 33 32.5 32 31.5 31 30.5 30 29.5 29 28.5 28 v -0.5 q 0,-0.5 0,-1"
         id="path7187"
         inkscape:connector-curvature="0" />
      <path
         style="fill:#ffffff;fill-opacity:1"
         d="m 44,62.5 q 0,-0.5 0.5,-0.5 0.5,0 1,0 0.5,0 1,0 0.5,0 1,0 0.5,0 1,0 0.5,0 1,0 0.5,0 0.5,0.5 0,0.5 0,1 V 64 H 49.5 49 48.5 48 47.5 47 46.5 46 45.5 45 44.5 44 v -0.5 q 0,-0.5 0,-1"
         id="path7189"
         inkscape:connector-curvature="0" />
    </g>
  </g>
</svg>
